<svg width="19" height="29" viewBox="0 0 19 29" fill="none" xmlns="http://www.w3.org/2000/svg">
<path d="M9.50311 21.5231C12.8978 21.5231 15.6505 18.9998 15.6505 15.886V5.63608C15.6505 2.52323 12.8978 0 9.50311 0C6.10845 0 3.35574 2.52323 3.35574 5.63608V15.886C3.35574 18.9989 6.10845 21.5231 9.50311 21.5231ZM4.47364 5.63704C4.47364 3.09454 6.72939 1.02606 9.50311 1.02606C12.2768 1.02606 14.5326 3.09454 14.5326 5.63704V15.887C14.5326 18.4305 12.2768 20.4989 9.50311 20.4989C6.72939 20.4989 4.47364 18.4305 4.47364 15.887V5.63704Z" fill="#696F70"/>
<path fill-rule="evenodd" clip-rule="evenodd" d="M17.8821 15.8861V10.7616H19V15.8861C19 20.5385 14.997 24.3402 9.98435 24.5743H10.061V29H8.9442V24.5743H9.01565C4.00299 24.3411 0 20.5394 0 15.8861V10.7616H1.11789V15.8861C1.11789 20.1242 4.87818 23.5723 9.5 23.5723C14.1218 23.5723 17.8821 20.1242 17.8821 15.8861Z" fill="#696F70"/>
</svg>
