<svg width="30" height="30" viewBox="0 0 30 30" fill="none" xmlns="http://www.w3.org/2000/svg">
<path d="M14.5833 29.1667C6.52918 29.1667 0 22.6375 0 14.5833C0 6.52918 6.52918 0 14.5833 0C22.6375 0 29.1667 6.52918 29.1667 14.5833C29.1667 22.6375 22.6375 29.1667 14.5833 29.1667ZM14.5833 27.7083C21.8321 27.7083 27.7083 21.8321 27.7083 14.5833C27.7083 7.33459 21.8321 1.45833 14.5833 1.45833C7.33459 1.45833 1.45833 7.33459 1.45833 14.5833C1.45833 21.8321 7.33459 27.7083 14.5833 27.7083ZM18.9583 16.7708C18.9583 16.3681 19.2848 16.0417 19.6875 16.0417C20.0902 16.0417 20.4167 16.3681 20.4167 16.7708C20.4167 19.5898 18.1315 21.875 15.3125 21.875H13.8542C11.0352 21.875 8.75 19.5898 8.75 16.7708C8.75 16.3681 9.07646 16.0417 9.47917 16.0417C9.88187 16.0417 10.2083 16.3681 10.2083 16.7708C10.2083 18.7844 11.8406 20.4167 13.8542 20.4167H15.3125C17.326 20.4167 18.9583 18.7844 18.9583 16.7708ZM10.2083 13.125C9.40292 13.125 8.75 12.4721 8.75 11.6667C8.75 10.8613 9.40292 10.2083 10.2083 10.2083C11.0137 10.2083 11.6667 10.8613 11.6667 11.6667C11.6667 12.4721 11.0137 13.125 10.2083 13.125ZM18.9583 13.125C18.1529 13.125 17.5 12.4721 17.5 11.6667C17.5 10.8613 18.1529 10.2083 18.9583 10.2083C19.7637 10.2083 20.4167 10.8613 20.4167 11.6667C20.4167 12.4721 19.7637 13.125 18.9583 13.125Z" fill="#696F70"/>
</svg>
