<svg width="13" height="13" viewBox="0 0 13 13" fill="none" xmlns="http://www.w3.org/2000/svg">
<path d="M5.4134 0C2.43007 0 0 2.43007 0 5.4134C0 8.39672 2.43007 10.8268 5.4134 10.8268C6.71072 10.8268 7.90214 10.3661 8.83589 9.60138L12.0681 12.8336C12.118 12.8855 12.1777 12.927 12.2438 12.9556C12.3099 12.9841 12.3811 12.9992 12.4531 13C12.5251 13.0007 12.5966 12.9871 12.6632 12.9598C12.7299 12.9326 12.7905 12.8924 12.8414 12.8414C12.8924 12.7905 12.9326 12.7299 12.9598 12.6632C12.9871 12.5966 13.0007 12.5251 13 12.4531C12.9992 12.3811 12.9841 12.3099 12.9556 12.2438C12.927 12.1777 12.8855 12.118 12.8336 12.0681L9.60138 8.83589C10.3661 7.90214 10.8268 6.71072 10.8268 5.4134C10.8268 2.43007 8.39672 0 5.4134 0ZM5.4134 1.08268C7.8116 1.08268 9.74412 3.0152 9.74412 5.4134C9.74412 7.8116 7.8116 9.74412 5.4134 9.74412C3.0152 9.74412 1.08268 7.8116 1.08268 5.4134C1.08268 3.0152 3.0152 1.08268 5.4134 1.08268Z" fill="#696F70"/>
</svg>
