<svg width="25" height="25" viewBox="0 0 25 25" fill="none" xmlns="http://www.w3.org/2000/svg">
<path d="M22.5711 2.71523C21.7789 1.83263 20.8579 1.14649 19.8263 0.680273C18.8316 0.231645 17.7816 0 16.7026 0C15.6263 0 14.5737 0.22578 13.5789 0.671476C12.55 1.13477 11.6263 1.81211 10.8342 2.68884L1.92368 12.5968C1.29737 13.2888 0.813158 14.0951 0.481579 14.9983C0.163158 15.8691 0 16.7898 0 17.7369C0 18.6782 0.160526 19.596 0.476316 20.4668C0.802632 21.367 1.28421 22.1734 1.90526 22.8683C2.52632 23.5632 3.25263 24.0998 4.06053 24.4663C4.84211 24.8212 5.66842 25 6.51579 25C7.36316 25 8.18947 24.8211 8.97105 24.4693C9.78158 24.1027 10.5079 23.5661 11.1316 22.8741L18.2132 15.0158C18.6684 14.5115 19.0184 13.9221 19.2579 13.2653C19.4895 12.6319 19.6053 11.9605 19.6053 11.2744C19.6053 9.86102 19.1105 8.54153 18.2132 7.55044C17.3184 6.54763 16.129 5.99344 14.8632 5.98757C13.5948 5.98464 12.4026 6.53297 11.5053 7.53285L7.09474 12.4502C6.87105 12.6994 6.75 13.0278 6.75 13.3768C6.75 13.7257 6.87105 14.057 7.09474 14.3034L7.11316 14.3239C7.57105 14.837 8.31842 14.837 8.77895 14.3268L13.2 9.41536C14.1237 8.39495 15.6237 8.38908 16.5473 9.40366C16.9921 9.89627 17.2342 10.556 17.2342 11.2627C17.2342 11.9752 16.9868 12.6438 16.5368 13.1422L9.45789 21.0006C9.44474 21.0152 9.43421 21.0269 9.42632 21.0445C8.64474 21.8919 7.61316 22.3552 6.51842 22.3494C5.41579 22.3435 4.38158 21.8656 3.60789 21.0006C3.22105 20.5607 2.92105 20.0476 2.71316 19.4758C2.51316 18.9216 2.41316 18.3351 2.41316 17.7369C2.41316 16.5113 2.83684 15.3648 3.60789 14.5027C3.61842 14.4939 3.62632 14.4851 3.63684 14.4764L12.5289 4.57135C12.5368 4.56255 12.5447 4.55082 12.5526 4.53909C13.1158 3.92333 13.771 3.44245 14.5 3.11697C15.2105 2.80029 15.9579 2.64195 16.7263 2.64195C17.4947 2.64195 18.2447 2.80616 18.9526 3.12283C19.6868 3.45417 20.3447 3.93799 20.9079 4.56255C21.4711 5.19004 21.9053 5.9231 22.2026 6.74118C22.4895 7.52995 22.6342 8.36563 22.6342 9.22183C22.6342 10.081 22.4895 10.9196 22.2 11.7142C21.9026 12.5352 21.4632 13.2741 20.8974 13.9075L14.7526 20.7337C14.5289 20.9829 14.4053 21.3113 14.4053 21.6632C14.4053 22.0151 14.5289 22.3435 14.75 22.5898L14.7632 22.6044C15.2211 23.1146 15.9684 23.1146 16.4263 22.6044L22.5658 15.7812C23.3579 14.8986 23.9737 13.8694 24.3921 12.7229C24.7974 11.6145 25 10.4445 25 9.24233C25 8.04305 24.7947 6.8731 24.3921 5.76766C23.9763 4.62116 23.3632 3.59489 22.5711 2.71523Z" fill="#696F70"/>
</svg>
